<?xml version="1.0" standalone="no"?>
<!DOCTYPE svg PUBLIC "-//W3C//DTD SVG 20010904//EN"
 "http://www.w3.org/TR/2001/REC-SVG-20010904/DTD/svg10.dtd">
<svg version="1.0" xmlns="http://www.w3.org/2000/svg"
 width="457.000000pt" height="273.000000pt" viewBox="0 0 457.000000 273.000000"
 preserveAspectRatio="xMidYMid meet">

<g transform="translate(0.000000,273.000000) scale(0.100000,-0.100000)"
fill="#000000" stroke="none">
<path d="M850 2030 c-8 -14 -19 -20 -38 -18 -24 3 -27 0 -24 -25 2 -18 -2 -29
-12 -33 -21 -8 -21 -34 0 -34 13 0 15 -7 11 -30 -7 -31 8 -49 25 -32 13 13 38
4 38 -14 0 -8 9 -14 20 -14 11 0 20 6 20 14 0 17 27 29 35 15 12 -18 27 3 20
28 -4 19 -1 26 15 30 22 6 28 33 6 33 -18 0 -26 22 -19 50 5 20 3 22 -24 16
-25 -6 -31 -4 -36 13 -7 27 -23 27 -37 1z m46 -62 c16 -25 13 -58 -7 -68 -41
-23 -81 34 -47 68 15 15 45 15 54 0z"/>
<path d="M850 1966 c0 -2 11 -6 25 -8 13 -3 22 -1 19 3 -5 9 -44 13 -44 5z"/>
<path d="M730 1891 c0 -6 -10 -16 -22 -22 -17 -9 -24 -9 -33 5 -17 23 -48 10
-41 -17 6 -25 -10 -47 -35 -47 -28 0 -35 -22 -11 -38 26 -17 29 -47 6 -56 -24
-9 -1 -40 32 -41 21 0 29 -6 34 -25 6 -24 40 -42 40 -21 0 6 9 15 21 21 16 9
24 8 39 -5 23 -21 44 -10 36 18 -6 25 10 47 34 47 26 0 33 28 10 40 -24 13
-26 45 -5 54 13 4 14 10 5 26 -9 16 -15 18 -29 10 -21 -11 -36 2 -43 35 -3 20
-38 35 -38 16z m15 -131 c0 -20 -6 -26 -26 -28 -17 -2 -29 3 -32 12 -11 28 4
47 32 44 20 -2 26 -8 26 -28z m-12 -47 c-7 -2 -21 -2 -30 0 -10 3 -4 5 12 5
17 0 24 -2 18 -5z"/>
</g>
</svg>
